
        <svg xmlns="http://www.w3.org/2000/svg" viewBox="22 0 148.35 113.2">
          <g>
            <rect
              fill="none"
              stroke="#ffffff"
              x="23.32"
              y="1"
              width="146.03"
              height="111.16"
            />
            <path
              fill="#ffffff33"
              d="M38.81,12.79V99.28a1.08,1.08,0,0,0,1.08,1.09h21.2a1.08,1.08,0,0,0,1.08-1.09V13.87a1.08,1.08,0,0,0-1.08-1.08H38.81Z"
            />
            <path
              fill="#ffffff33"
              d="M131.59,13.87V99.28a1.08,1.08,0,0,0,1.08,1.09h21.2A1.08,1.08,0,0,0,155,99.28V12.79H132.67a1.08,1.08,0,0,0-1.08,1.08Z"
            />
            <path
              fill="#ffffff88"
              d="M62.49,13.27,96.88,63.9l34.38-50.63a1.1,1.1,0,0,1,.9-.48H155L97.78,99a1.09,1.09,0,0,1-1.5.3A1.07,1.07,0,0,1,96,99L38.81,12.79H61.6A1.07,1.07,0,0,1,62.49,13.27Z"
            />
          </g>
        </svg>