<svg xmlns="http://www.w3.org/2000/svg" viewBox="0 0 627.04 627.04"><defs><style>.cls-1{fill:#3b7018;}.cls-2{fill:none;}.cls-3{fill:#6fffa0;}.cls-4{fill:#289325;}</style></defs><g id="Layer_2" data-name="Layer 2"><g id="Layer_1-2" data-name="Layer 1"><polyline class="cls-1" points="313.07 78.07 313.09 78.07 313.46 78.07 313.48 78.07"/><path class="cls-2" d="M313.52,0a312.29,312.29,0,0,0-207,78.07h49.87l.1,60c-3.3,2.95-6.54,6-9.69,9.17A233.42,233.42,0,0,0,78.07,304.69V195.61l-.16-88.94a313.65,313.65,0,0,0,79.24,478.64h0l.13.07A311.94,311.94,0,0,0,313.52,627h.31C486.84,626.88,627,486.57,627,313.52S486.68,0,313.52,0ZM447.77,394c-.09.15-.19.3-.29.45l-1.28,2.07c-.39.64-.79,1.26-1.2,1.89l-10.42,14.19L433,414.47,431.66,416,428,420.08c-.44.48-.89,1-1.37,1.43l.64-.71a78.56,78.56,0,0,0-37.68-127.55L273.23,260.72c-4.14-1.22-10.36-9.1,1.21-16.45l.23-.13c2.21-1.24,4.49-2.39,6.81-3.41a78.52,78.52,0,0,1,24.1-6.32h0l7.78,0h7.08c1,.09,2,.2,2.95.33h0c1.88.24,3.75.56,5.63.95h.07q2.75.56,5.48,1.32l.16,0c.61.18,1.23.35,1.84.55l.28.07c1.05.33,2.1.68,3.14,1.06h0a78.43,78.43,0,0,1,37.12,27.73l0,0c.46.63.91,1.27,1.35,1.93s.86,1.27,1.26,1.94c.88,1.29,1.68,2.63,2.44,4L450,236.21s-.05-.1-.08-.15L448.7,234a148.05,148.05,0,0,1,8.38,16.4c.4.86.77,1.72,1.1,2.58s.73,1.72,1.06,2.59c.59,1.47,1.16,3,1.68,4.45.62,1.71,1.21,3.45,1.76,5.19.32,1,.63,1.95.92,2.95a.06.06,0,0,1,0,0c.33,1.1.65,2.2,1,3.31.47,1.76.92,3.52,1.34,5.3,0,.19.09.38.13.56.26,1.1.51,2.2.73,3.3s.46,2.22.66,3.33c.25,1.32.48,2.64.7,4,.14.81.27,1.62.37,2.44s.23,1.64.33,2.46c.11.63.18,1.25.24,1.88.05.44.1.89.14,1.32.07.58.15,1.17.19,1.75.13,1.32.23,2.65.33,4,.09,1.05.15,2.11.2,3.17a2.23,2.23,0,0,0,0,.36c.06,1.14.1,2.3.13,3.46v.52q.06,1.77.06,3.57v.33c0,1.55,0,3.1-.08,4.63,0,1.08-.07,2.15-.11,3.2,0,.89-.1,1.75-.16,2.62s-.1,1.45-.16,2.17-.09,1.16-.14,1.74c-.25,2.76-.57,5.51-1,8.23-.12.83-.25,1.65-.38,2.46s-.23,1.44-.36,2.16c-.23,1.36-.48,2.71-.75,4-.16.78-.32,1.56-.5,2.33-.1.5-.21,1-.33,1.49s-.29,1.24-.43,1.86c-.22.92-.45,1.81-.68,2.71a1.73,1.73,0,0,1-.08.27c-.1.42-.21.84-.33,1.28l-.69,2.47c-.25.83-.48,1.65-.74,2.48-.51,1.63-1,3.27-1.59,4.89-.29.87-.6,1.73-.91,2.59l-.76,2c-.33.87-.66,1.75-1,2.6-.48,1.19-1,2.39-1.48,3.56s-1,2.38-1.58,3.53c-.32.71-.65,1.41-1,2.1a3.89,3.89,0,0,1-.19.41c-.35.72-.69,1.43-1.06,2.14s-.76,1.53-1.17,2.29-.79,1.51-1.21,2.28l-.19.35c-.35.64-.7,1.27-1.06,1.89s-.85,1.51-1.29,2.25ZM157.15,321.78V307.21c.06-.88.12-1.77.19-2.65,0-.38.06-.76.09-1.14,0-.17,0-.34,0-.51,0-.46.07-.93.12-1.39.13-1.53.29-3.07.46-4.59.28-2.53.61-5,1-7.55.09-.61.19-1.23.29-1.84,0-.15,0-.31.08-.46.07-.38.13-.75.19-1.13,0-.12,0-.24.06-.36a.19.19,0,0,1,0-.08c.11-.65.22-1.29.35-1.93,0,0,0,0,0,0,.09-.51.2-1,.3-1.54.05-.27.1-.54.16-.81a1.86,1.86,0,0,1,.06-.34c0-.16.06-.32.1-.48.12-.61.24-1.21.38-1.81.06-.32.13-.64.2-.95.17-.78.35-1.55.54-2.32s.42-1.75.64-2.62c.15-.6.31-1.19.47-1.79.31-1.17.64-2.33,1-3.48s.68-2.25,1-3.37c.28-.87.57-1.75.86-2.62,0-.07.05-.15.08-.23.15-.45.31-.9.47-1.35.09-.28.19-.55.29-.83.27-.76.55-1.52.84-2.27.19-.51.38-1,.58-1.52s.44-1.15.68-1.72l.09-.23.38-.92.83-2,.87-2c1-2.14,2-4.24,3-6.32.25-.49.51-1,.77-1.47s.62-1.21.95-1.78.45-.84.7-1.26c.11-.21.21-.39.31-.6l0,0c.83-1.51,1.68-3,2.58-4.43.43-.71.87-1.43,1.32-2.14.31-.51.63-1,1-1.51s.74-1.14,1.12-1.7c.68-1,1.37-2.06,2.06-3.07.48-.7,1-1.39,1.47-2.07s1-1.36,1.49-2,1-1.35,1.52-2,1-1.35,1.56-2,1.06-1.32,1.59-2q1.5-1.84,3.08-3.64c1.17-1.36,2.39-2.69,3.62-4,.2-.21.42-.43.62-.65a78.34,78.34,0,0,0-15.81,29.73,75.19,75.19,0,0,0-2.13,10c-.28,1.91-.49,3.83-.65,5.74,0,.57-.07,1.15-.1,1.73a79.21,79.21,0,0,0,57.68,80.34l116.67,32.8c13.09,3.26,2.05,13.3-.65,14.69,0,0-1.47.9-2.25,1.31l-.2.12a78.6,78.6,0,0,1-59.63,7.45h0a3,3,0,0,1-.5-.12,78.55,78.55,0,0,1-39-25c-.5-.57-1-1.16-1.46-1.77h0a76.61,76.61,0,0,1-5.47-7.76q-.88-1.43-1.71-2.88l-67,37.8-.19.1,0,0c.66,1.16,1.3,2.27,2,3.38.41.73.84,1.41,1.28,2.11.06.12.15.24.21.36.3.49.6.95.9,1.43.67,1,1.3,2,2,3,.31.46.6.9.91,1.34.8,1.2,1.64,2.38,2.49,3.52.16.25.34.51.52.75l1.45,1.94c.15.19.29.37.43.57l.42.55a.67.67,0,0,0,.07.11c.58.72,1.14,1.45,1.73,2.17a4.31,4.31,0,0,0,.32.4l.22.27.44.54,1.73,2.07c-.11-.11-.21-.22-.31-.34a.36.36,0,0,1-.07-.1c-.14-.17-.29-.36-.45-.53s-.45-.51-.66-.77c-.65-.78-1.29-1.58-1.93-2.39s-1.13-1.42-1.66-2.14c-.26-.32-.51-.64-.75-1-.44-.55-.84-1.11-1.25-1.68s-.69-.92-1-1.4-.8-1.09-1.16-1.62-.9-1.27-1.32-1.91c-.16-.22-.3-.44-.43-.65-.62-.9-1.22-1.81-1.78-2.72a4.66,4.66,0,0,1-.3-.47c-.42-.65-.83-1.3-1.23-2s-.76-1.22-1.12-1.84c-1.23-2.07-2.42-4.17-3.54-6.3-2.25-4.18-4.27-8.45-6.11-12.82-.29-.68-.58-1.36-.84-2-.4-1-.8-2-1.16-3-.3-.76-.58-1.51-.85-2.28-.36-1-.72-2-1.06-3-.29-.82-.56-1.66-.82-2.5-.1-.29-.19-.59-.29-.88-.28-.89-.55-1.77-.8-2.67-.1-.3-.17-.59-.26-.88-.17-.59-.35-1.17-.49-1.76-.07-.22-.13-.45-.19-.67s-.17-.66-.26-1l-.11-.46a3.9,3.9,0,0,1-.12-.46c-.13-.57-.26-1.13-.42-1.73s-.29-1.11-.42-1.67-.33-1.39-.48-2.1-.26-1.19-.37-1.8c-.06-.24-.12-.5-.16-.76s-.13-.63-.19-.94-.09-.44-.12-.66c-.11-.52-.2-1.05-.3-1.57s-.14-.83-.22-1.23a3.37,3.37,0,0,0-.06-.36c-.13-.8-.26-1.58-.37-2.36,0-.29-.09-.6-.13-.89-.15-1-.29-2-.42-3a2.13,2.13,0,0,0,0-.25c0-.37-.09-.75-.13-1.13-.12-.91-.22-1.8-.3-2.73-.08-.68-.13-1.36-.19-2,0-.26-.05-.53-.07-.79l-.06-.8c0-.18,0-.34-.05-.52s0-.34,0-.51c-.06-.85-.12-1.72-.16-2.59A1.2,1.2,0,0,1,157.15,321.78Z"/><path class="cls-1" d="M78.47,313.63v3.87c0-1.28,0-2.58,0-3.87s0-2.59,0-3.87v3.87Z"/><path class="cls-1" d="M78.47,313.63v3.87c0-1.28,0-2.58,0-3.87s0-2.59,0-3.87v3.87Z"/><line class="cls-1" x1="313.37" y1="234.39" x2="313.38" y2="234.01"/><path class="cls-1" d="M157.15,304.46v9h-.24v-.27c0-.78,0-1.56,0-2.34,0-.54,0-1.06,0-1.6C157,307.66,157.05,306.05,157.15,304.46Z"/><line class="cls-1" x1="320.99" y1="234.38" x2="320.45" y2="234.38"/><line class="cls-1" x1="305.58" y1="234.41" x2="305.25" y2="234.41"/><line class="cls-1" x1="78.43" y1="313.63" x2="78.47" y2="313.63"/><line class="cls-1" x1="391.88" y1="313.03" x2="392.44" y2="313.03"/><line class="cls-1" x1="78.07" y1="106.54" x2="78.07" y2="106.17"/><path class="cls-1" d="M160,283.57c.09-.51.2-1,.3-1.54.05-.27.1-.54.16-.81-.08.33-.14.66-.21,1S160.1,283.12,160,283.57Z"/><path class="cls-1" d="M479.46,146.61a233.6,233.6,0,0,0-166-68.54h-.41a235.57,235.57,0,0,0-78.36,13.48,232.17,232.17,0,0,0-41.19,19.35c-.39.23-.77.46-1.16.71l-2.3,1.39-.34.22-2.25,1.41q-.67.42-1.35.87c-.77.48-1.53,1-2.28,1.49a234,234,0,0,0-27.35,21.22h0v-.13c-3.3,2.95-6.54,6-9.69,9.17A233.42,233.42,0,0,0,78.07,304.69V520.51a1.35,1.35,0,0,1-.16-.19V627h79.37V585.39l-.13-.07V488.74A235.08,235.08,0,0,0,421.81,522c4.77-2.47,9.44-5.12,14.05-7.93.91-.56,1.81-1.11,2.7-1.68l3-1.95,1.78-1.19q3-2,6-4.11A238.34,238.34,0,0,0,505.49,449a235.23,235.23,0,0,0-26-302.38Z"/><path class="cls-1" d="M470.14,313.21c0,1.55,0,3.1-.08,4.63,0,1.08-.07,2.15-.11,3.2,0,.89-.1,1.75-.16,2.62s-.1,1.45-.16,2.17-.09,1.16-.14,1.74c-.25,2.76-.57,5.51-1,8.23-.12.83-.25,1.65-.38,2.46s-.23,1.44-.36,2.16c-.23,1.36-.48,2.71-.75,4-.16.78-.32,1.56-.5,2.33-.1.5-.21,1-.33,1.49s-.29,1.24-.43,1.86c-.22.92-.45,1.81-.68,2.71a1.73,1.73,0,0,1-.08.27c-.1.42-.21.84-.33,1.28l-.69,2.47c-.25.83-.48,1.65-.74,2.48-.51,1.63-1,3.27-1.59,4.89-.29.87-.6,1.73-.91,2.59l-.76,2c-.33.87-.66,1.75-1,2.6-.48,1.19-1,2.39-1.48,3.56s-1,2.38-1.58,3.53c-.32.71-.65,1.41-1,2.1a3.89,3.89,0,0,1-.19.41c-.35.72-.69,1.43-1.06,2.14s-.76,1.53-1.17,2.29-.79,1.51-1.21,2.28l-.19.35c-.35.64-.7,1.27-1.06,1.89s-.85,1.51-1.29,2.25l-1,1.69c-.09.15-.19.3-.29.45l-1.28,2.07c-.39.64-.79,1.26-1.2,1.89l-10.42,14.19L433,414.47,431.66,416,428,420.08c-.44.48-.89,1-1.37,1.43-.12.13-.23.26-.36.39-.58.61-1.17,1.2-1.77,1.81l-.15.17-.17.15c-.84.83-1.69,1.66-2.56,2.49l-.71.69a4.4,4.4,0,0,1-.39.35l-1.79,1.65c-.54.51-1.1,1-1.67,1.51l-.13.1L415.52,432c-.6.52-1.23,1.06-1.85,1.57-1.23,1-2.49,2-3.76,3-.39.3-.77.61-1.17.91-.65.51-1.33,1-2,1.51-.42.33-.87.65-1.32,1-.75.55-1.52,1.1-2.29,1.63-2.28,1.62-4.63,3.16-7,4.63-.91.58-1.84,1.14-2.78,1.69l-.69.42c-.81.48-1.64,1-2.46,1.41-.15.08-.28.17-.42.24s-.22.1-.34.18l-1.73.95c-1.16.64-2.33,1.25-3.52,1.84-.61.32-1.21.61-1.84.91-.84.42-1.69.83-2.54,1.22l-1.48.68c-.69.33-1.37.63-2.07.92-.39.18-.79.35-1.2.52-.84.37-1.69.71-2.53,1.06s-1.77.71-2.65,1c-1.32.52-2.65,1-4,1.48-.7.26-1.39.49-2.1.74-1.07.36-2.14.71-3.23,1l-2.23.68c-1.26.37-2.54.74-3.82,1.08a.7.7,0,0,1-.19.06l-.86.22c-.29.07-.58.16-.87.22-1.57.42-3.13.78-4.72,1.12s-3.15.68-4.75,1-3.19.59-4.8.84l-.77.11-1.4.22-1.4.19c-.44.06-.87.13-1.32.17s-.68.09-1,.12l-1.27.16c-.2,0-.41.06-.61.07s-.43.05-.65.06l-.24,0-1.41.13-.87.08-.3,0h-.15c-.38,0-.77.06-1.16.09l-.33,0-.59,0h-.39l-.45,0-1.12.08-1.11.05q-.63,0-1.26.06l-1.64.06h-.41l-.46,0c-.38,0-.77,0-1.16,0h-3.88l-1.06,0h-1.66l-1,0-.84,0-.77,0c-.29,0-.58,0-.88,0l-.94-.05c-.58,0-1.14-.05-1.71-.1-.35,0-.68,0-1-.06l-2.42-.17-2.11-.19-.85-.08c-.73-.08-1.45-.15-2.17-.24h0l-.39,0c-.42,0-.86-.1-1.26-.16l-.93-.11c-.23,0-.46-.06-.69-.11h0c-.45-.05-.89-.11-1.33-.18s-.9-.13-1.34-.21c-.23,0-.47,0-.7-.1l-.66-.1-.88-.14-1.43-.25-1.3-.25c-.45-.08-.89-.15-1.33-.24l-.35-.07-.07,0c-.79-.16-1.57-.3-2.33-.48-.29-.05-.58-.11-.86-.18l-.53-.12-.94-.22h0l-1.31-.3c-.34-.07-.69-.16-1-.25l-2.27-.59a1.53,1.53,0,0,1-.29-.07c-2.7-.73-5.38-1.52-8-2.39-.29-.09-.6-.17-.89-.28-.53-.17-1.07-.34-1.6-.53-.7-.25-1.41-.48-2.1-.74-1-.33-2-.71-3-1.08-.68-.26-1.34-.52-2-.8a.08.08,0,0,1-.07,0c-.71-.27-1.43-.56-2.14-.87l-.15-.05-.88-.37c-.28-.13-.55-.26-.84-.37s-.84-.35-1.26-.54l-.82-.37c-.29-.12-.57-.25-.84-.38s-.47-.2-.68-.3l-1.36-.64c-.26-.12-.52-.23-.77-.36l-.72-.35-.54-.28c-.88-.43-1.76-.88-2.65-1.33l-1.42-.73c-.56-.29-1.12-.6-1.69-.92,0,0,0,0,0,0-.29-.14-.55-.28-.81-.43-.75-.4-1.48-.82-2.2-1.24l-.9-.52-1.59-.95c-.72-.43-1.45-.86-2.16-1.31s-1.26-.78-1.88-1.19l-.26-.17-2.13-1.39-1.36-.93-1-.72c-.24-.16-.49-.33-.74-.52,0,0,0,0,0-.05l-.05,0c-.33-.21-.65-.41-1-.65l-.6-.45c-.21-.13-.4-.27-.58-.4l-1.32-1c-.34-.24-.67-.5-1-.76l-.67-.52,0,0h0s0,0,0,0c-.61-.48-1.22-.94-1.81-1.42h0c-1.13-.89-2.23-1.79-3.33-2.72-.42-.33-.83-.68-1.25-1-.92-.78-1.82-1.59-2.73-2.39-.42-.37-.83-.73-1.25-1.13l-.31-.28c-.61-.55-1.21-1.1-1.8-1.68l-1.53-1.46s0,0,0,0h0L203,424.13h0l-1.75-1.75-.15-.15h0l-.23-.24,0-.05-1-1.05c-.39-.42-.8-.84-1.2-1.28l-.09-.1-.43-.47h0c-.46-.5-.93-1-1.38-1.52l-.11-.12-.14-.16-.06-.08h0a.28.28,0,0,1-.07-.09c-.55-.61-1.08-1.21-1.6-1.82-.15-.18-.32-.36-.47-.55a.76.76,0,0,1-.08-.11c-.11-.11-.21-.22-.31-.34a.36.36,0,0,1-.07-.1c-.14-.17-.29-.36-.45-.53s-.45-.51-.66-.77c-.65-.78-1.29-1.58-1.93-2.39s-1.13-1.42-1.66-2.14c-.26-.32-.51-.64-.75-1-.44-.55-.84-1.11-1.25-1.68s-.69-.92-1-1.4-.8-1.09-1.16-1.62-.9-1.27-1.32-1.91c-.16-.22-.3-.44-.43-.65-.62-.9-1.22-1.81-1.78-2.72a4.66,4.66,0,0,1-.3-.47c-.42-.65-.83-1.3-1.23-2s-.76-1.22-1.12-1.84c-1.23-2.07-2.42-4.17-3.54-6.3-2.25-4.18-4.27-8.45-6.11-12.82-.29-.68-.58-1.36-.84-2-.4-1-.8-2-1.16-3-.3-.76-.58-1.51-.85-2.28-.36-1-.72-2-1.06-3-.29-.82-.56-1.66-.82-2.5-.1-.29-.19-.59-.29-.88-.28-.89-.55-1.77-.8-2.67-.1-.3-.17-.59-.26-.88-.17-.59-.35-1.17-.49-1.76-.07-.22-.13-.45-.19-.67s-.17-.66-.26-1l-.11-.46a3.9,3.9,0,0,1-.12-.46c-.13-.57-.26-1.13-.42-1.73s-.29-1.11-.42-1.67-.33-1.39-.48-2.1-.26-1.19-.37-1.8c-.06-.24-.12-.5-.16-.76s-.13-.63-.19-.94-.09-.44-.12-.66c-.11-.52-.2-1.05-.3-1.57s-.14-.83-.22-1.23a3.37,3.37,0,0,0-.06-.36c-.13-.8-.26-1.58-.37-2.36,0-.29-.09-.6-.13-.89-.15-1-.29-2-.42-3a2.13,2.13,0,0,0,0-.25c0-.37-.09-.75-.13-1.13-.12-.91-.22-1.8-.3-2.73-.08-.68-.13-1.36-.19-2,0-.26-.05-.53-.07-.79s0-.35-.05-.53a2.35,2.35,0,0,0,0-.27c0-.18,0-.34-.05-.52s0-.34,0-.51c-.06-.85-.12-1.72-.16-2.59a1.2,1.2,0,0,1,0-.19l-.24-8.31v-.27c0-.72,0-1.43,0-2.16.06-1.28.13-2.56.22-3.83.06-.88.12-1.77.19-2.65,0-.38.06-.76.09-1.14,0-.17,0-.34,0-.51,0-.46.07-.93.12-1.39,0-.62.1-1.24.17-1.88.09-.91.19-1.81.29-2.71.28-2.53.61-5,1-7.55.09-.61.19-1.23.29-1.84,0-.15,0-.31.08-.46.07-.38.13-.75.19-1.13,0-.12,0-.24.06-.36a.19.19,0,0,1,0-.08q.12-.76.27-1.53l.08-.4s0,0,0,0c.09-.51.2-1,.3-1.54.05-.27.1-.54.16-.81a1.86,1.86,0,0,1,.06-.34c0-.16.06-.32.1-.48.12-.61.24-1.21.38-1.81.06-.32.13-.64.2-.95.17-.78.35-1.55.54-2.32s.42-1.75.64-2.62c.15-.6.31-1.19.47-1.79.31-1.17.64-2.33,1-3.48.17-.56.33-1.12.5-1.68s.35-1.13.53-1.69.36-1.13.54-1.68c.1-.31.21-.63.32-.94,0-.07.05-.15.08-.23.15-.45.31-.9.47-1.35.09-.28.19-.55.29-.83.27-.76.55-1.52.84-2.27.19-.51.38-1,.58-1.52s.44-1.15.68-1.72l.09-.23c0-.09.07-.19.11-.28s.17-.43.26-.64l.84-2,.87-2c1-2.14,2-4.24,3-6.32.25-.49.51-1,.77-1.47s.62-1.21.95-1.78.45-.84.7-1.26c.11-.21.21-.39.31-.6l0,0c.83-1.51,1.68-3,2.58-4.43.43-.71.87-1.43,1.32-2.14.31-.51.63-1,1-1.51s.74-1.14,1.12-1.7c.68-1,1.37-2.06,2.06-3.07.48-.7,1-1.39,1.47-2.07s1-1.36,1.49-2,1-1.35,1.52-2,1-1.35,1.56-2,1.06-1.32,1.59-2q1.5-1.84,3.08-3.64c1.17-1.36,2.39-2.69,3.62-4,.2-.21.42-.43.62-.65a0,0,0,0,1,0,0l0,0c1-1,1.92-2,2.89-3a162.07,162.07,0,0,1,17.1-14.89h0q1.8-1.35,3.65-2.65c.55-.39,1.1-.78,1.66-1.16a0,0,0,0,1,0,0l0,0c.62-.42,1.24-.84,1.87-1.25l3-2c.76-.49,1.53-1,2.3-1.44l2.73-1.61c.43-.27.87-.52,1.31-.75l.39-.23,1.56-.87.69-.36.51-.29,1.27-.67,1-.53.25-.13,1-.49.22-.12h0a1.32,1.32,0,0,1,.2-.12l1.38-.68.44-.21,1.11-.52.71-.34,1.7-.79.15-.07,1.66-.74.41-.19c.25-.12.52-.23.78-.34l.39-.16.23-.09.42-.19.26-.1.46-.19,2.36-1,3.58-1.36a.73.73,0,0,1,.19-.07c1.12-.41,2.27-.81,3.41-1.2.8-.28,1.61-.54,2.42-.8,1.6-.52,3.24-1,4.86-1.48l2.46-.68h0l.25-.07.25-.06c1.15-.32,2.33-.62,3.51-.89l.47-.11c1.1-.27,2.21-.52,3.32-.75.81-.19,1.64-.36,2.46-.5,1.48-.31,3-.57,4.43-.81,2-.34,3.91-.63,5.88-.87q2.16-.29,4.35-.51c2.62-.26,5.27-.46,7.93-.59,1.28-.06,2.55-.12,3.84-.15s2.54,0,3.83,0c3,0,6.07.07,9.09.23,4.85.28,9.65.75,14.41,1.46l2.27.35,1.83.3.94.16,1.14.22,1.2.22,1.19.26h0l1,.21.3.08a.66.66,0,0,1,.15,0l.24,0,.24.06,2,.46,2.47.59h.06l.75.2.21.05.26.06,0,0,.1,0,.16,0,.16.05.79.21.79.21c1,.28,2,.55,3,.86h0c.25.06.52.15.8.23l1.24.38,1.23.4.47.15c.16,0,.32.1.47.15l.26.08.12,0,.58.19.58.2,1.86.64c.28.09.55.19.81.29l1.12.4.11,0,1,.37.13,0c.39.15.77.29,1.14.45.7.26,1.4.54,2.09.81l1.33.55c.78.32,1.56.65,2.33,1a2.75,2.75,0,0,1,.36.15c.49.2,1,.42,1.43.63l.12.05.13,0,1,.48c.51.23,1,.47,1.54.72l1.35.64.37.18,1.71.86.18.09c1.06.55,2.13,1.09,3.19,1.66l2.23,1.21,2.21,1.26,1.55.93c.81.48,1.62,1,2.41,1.45,1.57,1,3.13,1.95,4.66,3s2.81,1.89,4.19,2.89c.69.49,1.39,1,2.07,1.51s1.36,1,2,1.53c1.36,1,2.7,2.1,4,3.18s2.52,2.1,3.75,3.17c2.64,2.32,5.23,4.72,7.74,7.22h0a161.14,161.14,0,0,1,12.78,14.34c.33.42.67.84,1,1.26.54.7,1.05,1.39,1.57,2.09s.89,1.23,1.34,1.85c.56.77,1.1,1.55,1.64,2.33.21.29.43.6.63.9l.18.26c.13.19.25.39.37.58l.19.29.07.09,0,0a.57.57,0,0,1,.11.16.05.05,0,0,1,0,0c.12.16.23.32.34.49l.14.22c.28.42.55.85.82,1.28s.48.74.72,1.11h0c.19.3.37.59.54.89l.08.12c.23.35.45.71.66,1.07l.11.16.1.18c.39.63.79,1.27,1.16,1.93h0a.41.41,0,0,0,.05.09,148.05,148.05,0,0,1,8.38,16.4c.4.86.77,1.72,1.1,2.58s.73,1.72,1.06,2.59c.59,1.47,1.16,3,1.68,4.45.62,1.71,1.21,3.45,1.76,5.19.32,1,.63,1.95.92,2.95a.06.06,0,0,1,0,0c.33,1.1.65,2.2,1,3.31.47,1.76.92,3.52,1.34,5.3,0,.19.09.38.13.56.26,1.1.51,2.2.73,3.3s.46,2.22.66,3.33c.25,1.32.48,2.64.7,4,.14.81.27,1.62.37,2.44s.23,1.64.33,2.46c.11.63.18,1.25.24,1.88.05.44.1.89.14,1.32.07.58.15,1.17.19,1.75.13,1.32.23,2.65.33,4,.09,1.05.15,2.11.2,3.17a2.23,2.23,0,0,0,0,.36c.06,1.14.1,2.3.13,3.46v.52q.06,1.77.06,3.57Z"/><path class="cls-1" d="M160.27,282.22c-.09.45-.17.9-.25,1.35.09-.51.2-1,.3-1.54.05-.27.1-.54.16-.81a1.86,1.86,0,0,1,.06-.34C160.45,281.33,160.35,281.77,160.27,282.22Z"/><path class="cls-3" d="M355.28,366.06l-116.67-32.8a79.21,79.21,0,0,1-57.68-80.34c0-.58.06-1.16.1-1.73.16-1.91.37-3.83.65-5.74a75.19,75.19,0,0,1,2.13-10,78.34,78.34,0,0,1,15.81-29.73c-.2.22-.42.44-.62.65-1.23,1.34-2.45,2.67-3.62,4q-1.57,1.8-3.08,3.64c-.53.65-1.07,1.31-1.59,2s-1.06,1.33-1.56,2-1,1.34-1.52,2-1,1.36-1.49,2-1,1.37-1.47,2.07c-.69,1-1.38,2-2.06,3.07-.38.56-.76,1.14-1.12,1.7s-.64,1-1,1.51c-.45.71-.89,1.43-1.32,2.14-.9,1.45-1.75,2.92-2.58,4.43l0,0c-.1.21-.2.39-.31.6-.25.42-.48.84-.7,1.26s-.64,1.17-.95,1.78-.52,1-.77,1.47c-1.06,2.08-2.07,4.18-3,6.32l-.87,2-.83,2-.38.92-.09.23c-.22.54-.44,1.1-.65,1.64s-.41,1.06-.61,1.6c-.29.75-.57,1.51-.84,2.27-.1.28-.2.55-.29.83-.16.45-.32.9-.47,1.35,0,.08-.05.16-.08.23-.29.87-.58,1.75-.86,2.62-.35,1.12-.7,2.24-1,3.37s-.66,2.31-1,3.48c-.16.6-.32,1.19-.47,1.79-.22.87-.44,1.74-.64,2.62s-.37,1.54-.54,2.32c-.07.31-.14.63-.2.95-.14.6-.26,1.2-.38,1.81,0,.16-.07.32-.1.48a1.86,1.86,0,0,0-.06.34c-.06.27-.11.54-.16.81-.1.51-.21,1-.3,1.54,0,0,0,0,0,0-.13.64-.24,1.28-.35,1.93a.19.19,0,0,0,0,.08c0,.12,0,.24-.06.36-.06.38-.12.75-.19,1.13,0,.15-.06.31-.08.46-.1.61-.2,1.23-.29,1.84-.38,2.51-.71,5-1,7.55-.17,1.52-.33,3.06-.46,4.59-.05.46-.09.93-.12,1.39,0,.17,0,.34,0,.51,0,.38-.07.76-.09,1.14-.07.88-.13,1.77-.19,2.65v14.57a1.2,1.2,0,0,0,0,.19c0,.87.1,1.74.16,2.59,0,.17,0,.35,0,.51s0,.34.05.52l.06.8c0,.26,0,.53.07.79.06.68.11,1.36.19,2,.08.93.18,1.82.3,2.73,0,.38.09.76.13,1.13a2.13,2.13,0,0,1,0,.25c.13,1,.27,2,.42,3,0,.29.09.6.13.89.11.78.24,1.56.37,2.36a3.37,3.37,0,0,1,.06.36c.08.4.13.82.22,1.23s.19,1,.3,1.57c0,.22.08.44.12.66s.12.63.19.94.1.52.16.76c.11.61.24,1.2.37,1.8s.31,1.4.48,2.1.26,1.11.42,1.67.29,1.16.42,1.73a3.9,3.9,0,0,0,.12.46l.11.46c.09.34.17.67.26,1s.12.45.19.67c.14.59.32,1.17.49,1.76.09.29.16.58.26.88.25.9.52,1.78.8,2.67.1.29.19.59.29.88.26.84.53,1.68.82,2.5.34,1,.7,2,1.06,3,.27.77.55,1.52.85,2.28.36,1,.76,2,1.16,3,.26.68.55,1.36.84,2,1.84,4.37,3.86,8.64,6.11,12.82,1.12,2.13,2.31,4.23,3.54,6.3.36.62.74,1.23,1.12,1.84s.81,1.31,1.23,2a4.66,4.66,0,0,0,.3.47c.56.91,1.16,1.82,1.78,2.72.13.21.27.43.43.65.42.64.87,1.27,1.32,1.91s.75,1.08,1.16,1.62.66.94,1,1.4.81,1.13,1.25,1.68c.24.33.49.65.75,1,.53.72,1.08,1.43,1.66,2.14s1.28,1.61,1.93,2.39c.21.26.43.51.66.77s.31.36.45.53a.36.36,0,0,0,.07.1c.1.12.2.23.31.34l-1.73-2.07L192,412l-.22-.27a4.31,4.31,0,0,1-.32-.4c-.59-.72-1.15-1.45-1.73-2.17a.67.67,0,0,1-.07-.11l-.42-.55c-.14-.2-.28-.38-.43-.57L187.36,406c-.18-.24-.36-.5-.52-.75-.85-1.14-1.69-2.32-2.49-3.52-.31-.44-.6-.88-.91-1.34-.69-1-1.32-2-2-3-.3-.48-.6-.94-.9-1.43-.06-.12-.15-.24-.21-.36-.44-.7-.87-1.38-1.28-2.11-.67-1.11-1.31-2.22-2-3.38l0,0,.19-.1,67-37.8q.82,1.45,1.71,2.88a76.61,76.61,0,0,0,5.47,7.76h0c.46.61,1,1.2,1.46,1.77a78.55,78.55,0,0,0,39,25,3,3,0,0,0,.5.12h0a78.6,78.6,0,0,0,59.63-7.45l.2-.12c.78-.41,2.25-1.31,2.25-1.31C357.33,379.36,368.37,369.32,355.28,366.06Z"/><path class="cls-3" d="M470.08,309.31v-.52c0-1.16-.07-2.32-.13-3.46a2.23,2.23,0,0,1,0-.36c-.05-1.06-.11-2.12-.2-3.17-.1-1.32-.2-2.65-.33-4,0-.58-.12-1.17-.19-1.75,0-.43-.09-.88-.14-1.32-.06-.63-.13-1.25-.24-1.88-.1-.82-.21-1.63-.33-2.46s-.23-1.63-.37-2.44c-.22-1.33-.45-2.65-.7-4-.2-1.11-.42-2.23-.66-3.33s-.47-2.2-.73-3.3c0-.18-.08-.37-.13-.56-.42-1.78-.87-3.54-1.34-5.3-.31-1.11-.63-2.21-1-3.31a.06.06,0,0,0,0,0c-.29-1-.6-2-.92-2.95-.55-1.74-1.14-3.48-1.76-5.19-.52-1.49-1.09-3-1.68-4.45-.33-.87-.68-1.72-1.06-2.59s-.7-1.72-1.1-2.58A148.05,148.05,0,0,0,448.7,234l1.17,2.05c0,.05.05.11.08.15l-67.69,38.15c-.76-1.38-1.56-2.72-2.44-4-.4-.67-.84-1.3-1.26-1.94s-.89-1.3-1.35-1.93l0,0a78.43,78.43,0,0,0-37.12-27.73h0c-1-.38-2.09-.73-3.14-1.06l-.28-.07c-.61-.2-1.23-.37-1.84-.55l-.16,0q-2.73-.77-5.48-1.32h-.07c-1.88-.39-3.75-.71-5.63-.95h0c-1-.13-2-.24-2.95-.33h-7.08l-7.78,0h0a78.52,78.52,0,0,0-24.1,6.32c-2.32,1-4.6,2.17-6.81,3.41l-.23.13c-11.57,7.35-5.35,15.23-1.21,16.45l116.34,32.53A78.56,78.56,0,0,1,427.25,420.8l-.64.71c.48-.47.93-.95,1.37-1.43l3.68-4.12,1.33-1.49,1.59-1.91L445,398.37c.41-.63.81-1.25,1.2-1.89l1.28-2.07c.1-.15.2-.3.29-.45l1-1.69q.66-1.11,1.29-2.25c.36-.62.71-1.25,1.06-1.89l.19-.35c.42-.77.82-1.52,1.21-2.28s.8-1.52,1.17-2.29.71-1.42,1.06-2.14a3.89,3.89,0,0,0,.19-.41c.33-.69.66-1.39,1-2.1.54-1.15,1.07-2.34,1.58-3.53s1-2.37,1.48-3.56c.36-.85.69-1.73,1-2.6l.76-2c.31-.86.62-1.72.91-2.59.56-1.62,1.08-3.26,1.59-4.89.26-.83.49-1.65.74-2.48l.69-2.47c.12-.44.23-.86.33-1.28a1.73,1.73,0,0,0,.08-.27c.23-.9.46-1.79.68-2.71.14-.62.29-1.24.43-1.86s.23-1,.33-1.49c.18-.77.34-1.55.5-2.33.27-1.33.52-2.68.75-4,.13-.72.26-1.43.36-2.16s.26-1.63.38-2.46c.4-2.72.72-5.47,1-8.23.05-.58.1-1.16.14-1.74s.12-1.44.16-2.17.12-1.73.16-2.62c0-1.05.09-2.12.11-3.2.05-1.53.08-3.08.08-4.63v-.33Q470.14,311.08,470.08,309.31Z"/><path class="cls-2" d="M106.5,78.07A313.92,313.92,0,0,0,78.07,106.5c-.06.06-.1.12-.16.17V78.07Z"/><path class="cls-2" d="M156.47,138.08c-3.3,2.95-6.54,6-9.69,9.17A233.42,233.42,0,0,0,78.07,304.69V195.61l-.16-88.94c.06,0,.1-.11.16-.17A313.92,313.92,0,0,1,106.5,78.07h49.87Z"/><path class="cls-1" d="M440.73,221.76c1.11,1.54,2.18,3.11,3.24,4.69C442.91,224.88,441.85,223.3,440.73,221.76Z"/><path class="cls-1" d="M446.53,230.45c-.83-1.35-1.69-2.68-2.56-4C444.85,227.77,445.69,229.11,446.53,230.45Z"/><path class="cls-1" d="M446.61,230.57l-.08-.12.08.12Z"/><path class="cls-1" d="M157.46,326.39c0-.17,0-.35-.05-.53l-.06-.79c0,.18,0,.34.05.52Z"/><path class="cls-1" d="M168.67,253.52c-.24.57-.45,1.15-.68,1.72l0-.08C168.23,254.61,168.45,254.07,168.67,253.52Z"/><path class="cls-1" d="M162.1,273A148.36,148.36,0,0,1,168,255.24c-.2.51-.39,1-.58,1.52-.29.76-.57,1.51-.84,2.27-.1.28-.2.55-.29.83-.16.45-.32.9-.47,1.35,0,.08-.05.16-.08.23-.29.87-.58,1.75-.86,2.62-.35,1.12-.7,2.24-1,3.37s-.66,2.31-1,3.48c-.16.6-.32,1.19-.47,1.79-.22.87-.44,1.74-.64,2.62s-.37,1.54-.54,2.32c-.07.31-.14.63-.2.95-.14.6-.26,1.21-.38,1.81,0,.16-.07.32-.1.48a1.86,1.86,0,0,0-.06.34c-.08.33-.14.66-.21,1s-.17.9-.25,1.35c0,0,0,0,0,0-.13.64-.24,1.28-.35,1.93a.19.19,0,0,0,0,.08c-.09.49-.18,1-.25,1.49,0,.15-.06.31-.08.46-.1.61-.2,1.23-.29,1.84-.38,2.51-.71,5-1,7.55-.17,1.52-.33,3.06-.46,4.59-.05.46-.09.93-.12,1.39s-.09,1.1-.13,1.65c-.07.88-.13,1.77-.19,2.65v14.57c0-.2,0-.42,0-.62-.13-2.56-.19-5.12-.2-7.69v-.27c0-.78,0-1.56,0-2.34,0-.54,0-1.06,0-1.6,0-1.6.09-3.21.19-4.8a149,149,0,0,1,1.78-16.58c.41-2.52.87-5,1.39-7.5.35-1.68.74-3.33,1.14-5,.16-.65.34-1.31.51-1.94a3.81,3.81,0,0,1,.12-.51Z"/><path class="cls-1" d="M169.14,252.37l-.38.92c0-.09.07-.19.11-.28Z"/><path class="cls-4" d="M443.93,390.12a78.31,78.31,0,0,1-16.68,30.68l-.64.71c-.12.13-.23.26-.36.39s-.18.21-.28.31-.17.2-.27.3-.34.34-.52.52-.56.58-.85.85l-.16.16-.8.8-1.06,1-1.42,1.36a4.4,4.4,0,0,1-.39.35l-1.79,1.65c-.54.51-1.1,1-1.67,1.51l-.13.1-.15.12-13.59,10.61-2,1.4L394.79,447c-1.44.87-2.9,1.71-4.35,2.54s-3,1.65-4.49,2.45-2.78,1.42-4.19,2.1l-2.2,1.05c-.72.33-1.48.68-2.21,1-1.47.67-3,1.31-4.44,1.92l-1.37.55c-.77.32-1.57.62-2.36.92q-.74.3-1.53.57c-.87.33-1.75.65-2.63,1-2.66.92-5.34,1.78-8,2.57-1,.3-2.09.59-3.14.86-.26.08-.51.14-.78.23-.91.24-1.83.47-2.75.68l-.47.13a2.83,2.83,0,0,0-.36.07c-.65.15-1.29.29-1.93.45l-1.9.4c-.66.15-1.32.29-2,.41s-1.33.26-2,.38c-.92.18-1.86.34-2.78.49l-1.61.25c-.73.13-1.49.23-2.23.33-.43.07-.88.12-1.32.18l-1.36.17-1.36.16-1.17.13-.24,0-1.41.13-.87.08-.3,0h-.15c-.38,0-.77.06-1.16.09l-1.15.08-.16,0-.45,0-1.12.08-1.11.06c-.42,0-.84,0-1.26.05l-1.64.06H318c-.38,0-.77,0-1.16,0h-4.76l-.18,0h0a4,4,0,0,1-.49,0H311c-.3,0-.59,0-.89,0-1.24,0-2.46-.08-3.71-.13l-1.14-.06h-.3c-.75-.05-1.52-.08-2.27-.14l-2.27-.18c-1.61-.14-3.23-.3-4.84-.5s-3.23-.39-4.84-.64l-2.35-.37-.23,0c-.73-.12-1.45-.25-2.18-.39-1.1-.18-2.17-.4-3.24-.6-.56-.11-1.12-.22-1.66-.35-.79-.16-1.61-.35-2.41-.53s-1.61-.37-2.4-.58l-2.39-.61c-.82-.21-1.6-.43-2.41-.65-.58-.17-1.17-.32-1.73-.51s-1.16-.32-1.74-.5c-.83-.24-1.66-.51-2.49-.78-.27-.08-.54-.18-.84-.26l-2.5-.86c-1-.33-1.94-.68-2.9-1l-2.32-.87-.8-.31c-.69-.27-1.36-.53-2-.81h0l-.35-.15c-.4-.16-.79-.32-1.17-.5s-.65-.27-1-.41-.37-.15-.56-.23l0,0-.57-.22-.65-.3c-.43-.18-.84-.37-1.24-.56l-.65-.29-.6-.27c-.1-.06-.22-.11-.32-.18l-.49-.2c-.45-.21-.89-.42-1.32-.64l-1.18-.58-.9-.43a1.59,1.59,0,0,0-.32-.16l-.31-.17s0,0-.07,0c-.71-.36-1.42-.71-2.11-1.08-.26-.14-.53-.27-.77-.41l-.48-.27-.85-.45,0,0c-.39-.2-.77-.42-1.17-.64s-.62-.35-.93-.52-.63-.36-.94-.53-.73-.44-1.09-.66a1.74,1.74,0,0,1-.27-.14c-1.61-.95-3.22-1.93-4.81-2.95-.76-.48-1.52-1-2.28-1.53l-.78-.5-1.39-1-.87-.6-.05,0-.91-.64-.66-.46c-.2-.13-.39-.27-.58-.41l-1.32-1c-.34-.24-.67-.5-1-.76l-.67-.52,0,0h0s0,0,0,0c-.34-.25-.66-.48-1-.74s-.57-.44-.85-.67l-.12-.09c-.27-.2-.51-.39-.76-.6-.6-.46-1.19-.95-1.76-1.43l-.7-.6c-.24-.18-.48-.38-.7-.58a6.82,6.82,0,0,1-.58-.49l-.58-.48c-.19-.16-.38-.32-.55-.49s-.45-.37-.64-.56-.41-.35-.6-.52l-.6-.53L206.93,428c-.24-.21-.46-.44-.68-.64s-.39-.36-.59-.56c-.46-.44-.92-.87-1.38-1.33a0,0,0,0,1,0,0s0,0,0,0h0c-.26-.22-.45-.42-.66-.63-.62-.59-1.2-1.19-1.78-1.8-.2-.19-.39-.4-.57-.59l-.15-.15c-.07-.08-.16-.16-.24-.24l0-.05-1-1.05c-.26-.24-.51-.53-.78-.8,0,0-.08-.08-.12-.14-.28-.3-.56-.58-.82-.91h0c-.46-.5-.93-1-1.38-1.52l-.11-.12-.14-.16-.07-.08a.28.28,0,0,1-.07-.09c-.55-.61-1.08-1.21-1.6-1.82-.15-.18-.32-.36-.47-.55a.76.76,0,0,1-.08-.11l-1.73-2.07L192,412l-.22-.27a4.31,4.31,0,0,1-.32-.4c-.59-.72-1.15-1.45-1.73-2.17a.67.67,0,0,1-.07-.11l-.42-.55c-.14-.2-.28-.38-.43-.57L187.36,406c-.18-.24-.36-.5-.52-.75-.85-1.14-1.69-2.32-2.49-3.52-.31-.44-.6-.88-.91-1.34-.69-1-1.32-2-2-3-.3-.48-.6-.94-.9-1.43-.06-.12-.15-.24-.21-.36-.44-.7-.87-1.38-1.28-2.11-.67-1.11-1.31-2.22-2-3.38l0,0,.19-.1,67-37.8q.82,1.45,1.71,2.88a76.61,76.61,0,0,0,5.47,7.76h0c.46.61,1,1.2,1.46,1.77a78.55,78.55,0,0,0,39,25,3,3,0,0,0,.5.12h0a78.6,78.6,0,0,0,59.63-7.45l.2-.12c.78-.41,2.25-1.31,2.25-1.31,2.7-1.39,13.74-11.43.65-14.69l-116.67-32.8a79.21,79.21,0,0,1-57.68-80.34c0-.58.06-1.16.1-1.73.16-1.91.37-3.83.65-5.74a75.19,75.19,0,0,1,2.13-10,78.34,78.34,0,0,1,15.81-29.73,0,0,0,0,1,0,0l.16-.19c.34-.42.72-.84,1.09-1.26l.1-.14.89-.89c.17-.16.32-.32.47-.48s0,0,0,0c.6-.61,1.22-1.24,1.87-1.83s1.19-1.17,1.81-1.74,1.22-1.15,1.84-1.7c.33-.34.68-.64,1-1,.51-.44,1-.88,1.53-1.32a2.48,2.48,0,0,1,.3-.25c.93-.82,1.88-1.62,2.82-2.4.65-.54,1.31-1.08,2-1.6s1.32-1,2-1.56,1.33-1,2-1.52,1.36-1,2-1.51,1.37-1,2.07-1.46l1.32-.9a0,0,0,0,1,0,0l0,0c.62-.42,1.24-.84,1.87-1.25l1.88-1.24c.37-.24.74-.48,1.12-.71.76-.49,1.53-1,2.3-1.44l2.73-1.61,1.31-.75.39-.23,1.56-.87,1.2-.65,1.27-.67,1-.53.25-.13.75-.39.45-.22h0l1.58-.79.44-.22,1.1-.53,1.55-.73.87-.39.15-.07c.68-.31,1.37-.63,2.07-.93.25-.12.52-.23.78-.34l.39-.16.39-.17.26-.11.26-.1.46-.19,1.28-.54,1.08-.43c.86-.35,1.73-.69,2.6-1,.38-.15.76-.3,1.16-.43l2.4-.87c2.63-.93,5.29-1.77,8-2.56.8-.24,1.62-.48,2.46-.69,1.65-.47,3.34-.89,5-1.3.8-.18,1.61-.37,2.4-.53s1.68-.38,2.5-.54,1.66-.35,2.49-.5l2.51-.43c.84-.17,1.67-.29,2.51-.42s1.69-.25,2.54-.37,1.66-.22,2.5-.31l2.53-.3c2.54-.24,5.08-.46,7.63-.6l2.54-.11c1.69-.06,3.4-.09,5.08-.1.85,0,1.69,0,2.54,0h0a2.17,2.17,0,0,0,.26,0,1.14,1.14,0,0,1,.26,0c1.2,0,2.42,0,3.62.09l.47,0c1.13,0,2.27.09,3.41.17.83.07,1.67.11,2.5.18,1.49.12,3,.25,4.49.42,2,.21,3.93.47,5.89.75,1.44.22,2.88.44,4.33.71,1.23.22,2.47.45,3.71.7.74.14,1.48.3,2.23.47q.35.06.69.15l.24.05.93.2,1.13.26c.79.18,1.57.37,2.37.58l.05,0h.06l.12,0,.84.23.26.07h0l.1,0,.16,0,.16.05.79.21c.45.11.9.22,1.36.35.81.23,1.63.46,2.45.72.25.06.52.15.8.23l1.24.38,1.23.39.47.16c.16,0,.32.1.47.15l.26.08c.23.08.47.15.7.24l1.06.35c1.11.39,2.23.76,3.31,1.18l.11,0,1,.37.13.05c.38.15.77.28,1.14.44.7.26,1.4.54,2.09.81l1.33.55c.78.32,1.56.65,2.33,1a2.75,2.75,0,0,1,.36.15c.48.2,1,.41,1.43.63l.12.05.13,0,2.08,1c.63.29,1.24.57,1.85.89l.37.18c.64.3,1.27.62,1.9.94l2.26,1.15c.24.11.48.24.72.37.76.39,1.5.8,2.25,1.21s1.47.83,2.22,1.25l.72.4c.75.44,1.5.88,2.24,1.33s1.41.84,2.1,1.28,1.67,1,2.48,1.58c.61.38,1.19.77,1.78,1.16,1.22.83,2.44,1.66,3.63,2.51L406,186.6c.91.67,1.84,1.37,2.75,2.07.55.4,1.1.83,1.64,1.27l2,1.58c.66.53,1.3,1.08,1.94,1.61s1.29,1.08,1.93,1.65c1.93,1.66,3.79,3.37,5.63,5.13l1.82,1.78c.6.61,1.19,1.21,1.79,1.8.42.44.83.89,1.24,1.31.65.68,1.3,1.36,1.92,2.06,1.25,1.35,2.49,2.72,3.68,4.13s2.2,2.59,3.26,3.92c.53.66,1.05,1.33,1.58,2l1.55,2c.71.94,1.41,1.9,2.08,2.86.31.44.63.87.93,1.3.45.63.87,1.27,1.29,1.89l.18.26c.21.32.43.64.63,1l0,0a.57.57,0,0,1,.11.16.05.05,0,0,1,0,0c.12.16.23.32.34.49l.14.22c.28.42.55.85.82,1.28s.48.74.72,1.11h0c.43.7.87,1.38,1.29,2.08a1.4,1.4,0,0,0,.1.16l.1.18c.39.64.78,1.28,1.16,1.93h0a.41.41,0,0,0,.05.09l1.17,2.05c0,.05.05.11.08.15l-67.69,38.15c-.76-1.38-1.56-2.72-2.44-4-.4-.67-.84-1.3-1.26-1.94s-.89-1.3-1.35-1.93l0,0a78.43,78.43,0,0,0-37.12-27.73h0c-1-.38-2.09-.73-3.14-1.06l-.28-.07c-.61-.2-1.23-.37-1.84-.55l-.16,0q-2.73-.77-5.48-1.32h-.07c-1.88-.39-3.75-.71-5.63-.95h0c-1-.13-2-.24-2.95-.33-1.25-.12-2.51-.21-3.76-.27s-2.21-.08-3.31-.08c-1.41,0-2.83,0-4.24.11h0q-1.77.09-3.54.27h0a78.52,78.52,0,0,0-24.1,6.32c-2.32,1-4.6,2.17-6.81,3.41l-.23.13c-11.57,7.35-5.35,15.23-1.21,16.45l116.34,32.53A78.56,78.56,0,0,1,443.93,390.12Z"/><path class="cls-1" d="M465,353.12c0,.11,0,.21-.05.29-.09.34-.18.65-.28,1C464.8,354,464.91,353.54,465,353.12Z"/></g></g></svg>